# xmcd
#
# Track frame offsets: 
#        150
#        9682
#        19924
#        31997
#        42000
#        53350
#        65428
#        76865
#        88265
#        98648
#        107805
#        113313
#        125132
#        132264
#        146079
#
# Disc length: 2071 seconds
#
# Revision: 0
# Processed by: cddbd v1.5.2PL0 Copyright (c) Steve Scherf et al.
# Submitted via: ExactAudioCopy v0.99pb4
#
DISCID=bd08150f
DTITLE=Willie Nelson - Souvenirs [CD1]
DYEAR=2009
DGENRE=Country
TTITLE0=Man With The Bluses
TTITLE1=A New Way To Cry
TTITLE2=Happiness Lives Next Door
TTITLE3=Misery Mansion
TTITLE4=Night Life
TTITLE5=The Storm Has Just Begun
TTITLE6=What A Way To Live
TTITLE7=Country Willie
TTITLE8=San Antonio Rose
TTITLE9=Waiting Time
TTITLE10=The Ghost
TTITLE11=I'll Stay Around
TTITLE12=Both Ends Of The Candle
TTITLE13=Raint Day Blues
TTITLE14=Right From Wrong
EXTD=Early Hits and Rarities
EXTT0=
EXTT1=
EXTT2=
EXTT3=
EXTT4=
EXTT5=
EXTT6=
EXTT7=
EXTT8=
EXTT9=
EXTT10=
EXTT11=
EXTT12=
EXTT13=
EXTT14=
PLAYORDER=
